<svg width="415.28" height="307.28" xmlns="http://www.w3.org/2000/svg">

 <g>
  <title>background</title>
  <rect fill="none" id="canvas_background" height="309.28" width="417.28" y="-1" x="-1"/>
 </g>
 <g>
  <title>Layer 1</title>
  <g id="svg_2">
   <g id="svg_3">
    <path id="svg_4" d="m140.994,32.904l0,6.152c-0.23,3.877 -0.23,7.407 0,10.595c0.224,3.877 0.342,8.091 0.342,12.646c0,4.561 0.224,9.116 0.684,13.672c0.684,5.244 1.025,10.483 1.025,15.722c0,5.245 -0.229,10.713 -0.684,16.406c-0.459,5.469 -0.571,11.167 -0.342,17.089c0,5.928 0.112,12.08 0.342,18.457c0,6.382 0.342,12.646 1.025,18.797c0.454,6.383 0.795,12.877 1.025,19.482c0.454,6.611 0.908,12.764 1.367,18.457c0.224,5.697 0.342,10.824 0.342,15.379c0,4.102 0.112,7.861 0.342,11.279c0.224,3.418 0.454,6.27 0.684,8.545c0.224,2.281 0.342,4.332 0.342,6.152c0,1.598 0.112,3.535 0.342,5.81c0.224,2.51 0.342,4.561 0.342,6.152l0,2.393c0,1.596 -0.63,3.021 -1.88,4.271c-1.255,1.25 -2.734,1.881 -4.443,1.881s-3.135,-0.631 -4.272,-1.881c-1.143,-1.25 -1.709,-2.676 -1.709,-4.271l0,-2.393c0,-1.367 -0.117,-3.189 -0.342,-5.469c-0.229,-2.504 -0.342,-4.555 -0.342,-6.152c0,-1.592 -0.117,-3.418 -0.342,-5.469c-0.23,-2.275 -0.459,-5.238 -0.683,-8.887c-0.23,-3.641 -0.342,-7.631 -0.342,-11.963c0,-4.1 -0.118,-8.998 -0.342,-14.695c-0.46,-5.693 -0.914,-11.846 -1.367,-18.457c-0.23,-6.377 -0.572,-12.758 -1.025,-19.141c-0.684,-6.375 -1.025,-12.869 -1.025,-19.48c-0.23,-6.376 -0.342,-12.646 -0.342,-18.798c-0.23,-4.102 -0.23,-8.085 0,-11.962c-1.827,0 -3.194,0.118 -4.102,0.342c-2.051,0.229 -4.561,0.342 -7.519,0.342c-2.734,0 -5.015,0 -6.836,0c-2.051,0 -4.331,-0.112 -6.835,-0.342l-3.076,-0.342c0,5.015 -0.118,9.912 -0.342,14.697c-0.23,6.611 -0.342,13.671 -0.342,21.191c0,7.748 0,15.156 0,22.215c-0.23,7.066 -0.571,13.789 -1.025,20.166c-0.684,5.928 -1.025,11.508 -1.025,16.748c0,5.697 0,10.713 0,15.037l0,12.988c0,4.785 -0.229,8.32 -0.684,10.596c-0.23,2.051 -0.342,3.76 -0.342,5.127c0,1.367 0,2.734 0,4.102l0,2.393c0,1.592 -0.63,3.018 -1.88,4.272c-1.255,1.25 -2.681,1.881 -4.272,1.881c-1.597,0 -3.022,-0.631 -4.272,-1.881c-1.255,-1.254 -1.88,-2.68 -1.88,-4.272l0,-2.393c0,-1.592 0,-3.076 0,-4.443c0,-1.592 0.224,-3.643 0.684,-6.152c0.224,-2.051 0.342,-5.127 0.342,-9.229l0,-12.988c0,-4.555 0,-9.568 0,-15.037c0,-5.693 0.342,-11.734 1.025,-18.115c0.454,-5.922 0.795,-12.305 1.025,-19.141c0,-6.836 0,-14.125 0,-21.873c0,-7.744 0.112,-14.921 0.342,-21.533c0.224,-6.377 0.342,-12.988 0.342,-19.824c-0.23,-6.835 -0.23,-13.441 0,-19.823c0.224,-6.152 0.454,-11.845 0.684,-17.089c0.224,-4.785 0.342,-9.228 0.342,-13.33c0,-3.872 0.224,-7.29 0.683,-10.254c0.225,-3.188 0.566,-5.692 1.025,-7.519c0.454,-2.275 1.138,-4.443 2.051,-6.494l1.367,-2.734c0.684,-1.592 1.821,-2.676 3.418,-3.247c1.591,-0.566 3.129,-0.513 4.614,0.171c1.479,0.684 2.563,1.826 3.247,3.418c0.684,1.597 0.684,3.193 0,4.785l-1.367,2.734c-0.683,1.143 -1.143,2.393 -1.367,3.76c-0.23,1.597 -0.572,3.76 -1.025,6.494c-0.23,2.734 -0.342,5.81 -0.342,9.229c0,4.101 -0.118,8.662 -0.342,13.671c-0.23,5.015 -0.46,10.595 -0.684,16.748c0,4.101 0,8.32 0,12.646c0.224,0 0.454,0 0.684,0l3.417,0.342c2.051,0.23 3.872,0.342 5.469,0.342c1.821,0 4.213,0 7.178,0c2.504,0 4.443,-0.112 5.81,-0.342c1.821,-0.225 3.984,-0.342 6.494,-0.342c0.224,-3.188 0.342,-6.264 0.342,-9.229c0,-4.785 -0.23,-9.57 -0.684,-14.355c-0.684,-5.009 -1.025,-9.912 -1.025,-14.697c0,-4.555 -0.118,-8.545 -0.342,-11.962c-0.23,-3.872 -0.23,-7.973 0,-12.304l0,-6.152c0.224,-1.592 0.966,-2.959 2.222,-4.102c1.249,-1.138 2.675,-1.709 4.272,-1.709c1.592,0 3.018,0.63 4.273,1.88c1.248,1.254 1.76,2.792 1.536,4.613z"/>
    <path id="svg_5" d="m192.942,23.676c0.684,-3.188 2.505,-4.897 5.469,-5.127l2.734,0c1.591,-0.224 3.3,-0.454 5.126,-0.684c2.275,-0.224 4.443,-0.342 6.494,-0.342c1.591,0 3.53,0 5.81,0l18.115,0c1.591,0 3.018,0.63 4.272,1.88c1.25,1.255 1.88,2.734 1.88,4.443s-0.63,3.135 -1.88,4.272c-1.255,1.143 -2.681,1.709 -4.272,1.709l-18.115,0c-2.28,0 -4.331,0 -6.152,0c-1.367,0 -2.964,0.117 -4.785,0.342c-1.367,0 -2.622,0.117 -3.76,0.342l0,1.025c-0.23,2.28 -0.342,5.468 -0.342,9.57c0,4.331 0,9.688 0,16.064c-0.229,6.382 -0.342,13.217 -0.342,20.507c-0.229,6.836 -0.459,14.585 -0.684,23.242c-0.229,8.662 -0.913,17.089 -2.05,25.292c-0.914,7.749 -1.827,15.498 -2.734,23.242c2.051,-0.454 4.101,-0.796 6.152,-1.025c2.505,-0.225 4.897,-0.225 7.178,0c2.051,0.229 3.76,0.342 5.127,0.342c1.367,0 3.076,-0.225 5.127,-0.684l3.76,-1.025c1.591,-0.454 3.129,-0.225 4.614,0.684c1.479,0.913 2.392,2.168 2.734,3.759c0.342,1.597 0.112,3.135 -0.684,4.614c-0.801,1.485 -2.109,2.451 -3.93,2.906l-3.418,0.684c-2.964,0.912 -5.586,1.367 -7.861,1.367c-2.05,0 -4.219,-0.113 -6.494,-0.342c-1.597,0 -3.306,0 -5.127,0c-2.051,0.229 -4.101,0.57 -6.152,1.025l-2.392,0.34c-0.46,3.648 -0.801,7.295 -1.025,10.938c-0.46,7.295 -0.801,14.131 -1.025,20.508c0,6.152 0.112,11.738 0.342,16.748c0.224,5.244 0.566,10.141 1.025,14.695c0.454,4.561 0.908,8.434 1.367,11.621c0.684,3.648 1.025,6.953 1.025,9.912c-0.23,1.143 -0.342,2.281 -0.342,3.418c1.591,0.228 3.188,0.228 4.785,0c2.734,-0.225 5.469,-0.566 8.203,-1.025c2.958,-0.225 5.351,-0.453 7.177,-0.684c1.592,0 3.018,-0.053 4.272,-0.172c1.25,-0.111 2.676,-0.281 4.272,-0.512l2.734,-0.684c1.591,-0.225 3.076,0.117 4.443,1.025c1.367,0.914 2.222,2.221 2.563,3.93c0.342,1.709 0,3.248 -1.025,4.615c-1.025,1.367 -2.339,2.279 -3.931,2.734l-2.392,0.342c-1.827,0.225 -3.536,0.453 -5.127,0.684c-1.597,0.225 -3.306,0.342 -5.127,0.342c-1.597,0.225 -3.647,0.453 -6.152,0.684c-2.734,0.453 -5.469,0.795 -8.203,1.025c-3.418,0.453 -6.835,0.225 -10.253,-0.684c-5.698,-1.367 -8.544,-4.443 -8.544,-9.228c0,-1.367 0.112,-3.418 0.342,-6.152c0,-2.275 -0.23,-4.896 -0.684,-7.861c-0.684,-3.188 -1.255,-7.178 -1.709,-11.963c-0.46,-4.785 -0.801,-9.912 -1.025,-15.379c-0.229,-5.24 -0.342,-11.162 -0.342,-17.773c0.224,-6.377 0.625,-13.383 1.196,-21.02c0.566,-7.633 1.308,-15.434 2.222,-23.412c0.908,-8.203 1.933,-16.289 3.076,-24.267c1.138,-7.744 1.709,-15.722 1.709,-23.925c0.225,-8.203 0.454,-15.946 0.684,-23.242c0,-7.29 0.112,-14.013 0.342,-20.165c0,-6.376 0,-11.733 0,-16.064c0,-4.555 0.112,-8.203 0.342,-10.937l0.684,-3.76c-0.001,-0.908 0.223,-1.821 0.683,-2.734z"/>
    <path id="svg_6" d="m276.677,252.33l0,-5.127c0,-3.188 0.053,-6.836 0.171,-10.938c0.112,-4.102 0.395,-9.281 0.854,-15.551c0.454,-6.264 0.908,-13.383 1.367,-21.361c0.454,-7.975 1.367,-16.973 2.734,-27.002c0.225,-1.82 0.454,-3.76 0.684,-5.811c-0.913,-1.137 -1.367,-2.393 -1.367,-3.76c0,-2.273 0.908,-3.983 2.734,-5.125c0.684,-5.01 1.367,-9.912 2.051,-14.697c1.591,-9.794 2.958,-19.023 4.102,-27.685c0.908,-8.887 2.163,-17.543 3.76,-25.976c1.367,-8.203 2.393,-15.493 3.076,-21.874c0.684,-6.606 1.479,-13.041 2.393,-19.311c0.908,-6.264 1.709,-11.674 2.392,-16.234c0.684,-4.556 1.138,-8.315 1.367,-11.279c0.454,-3.188 1.025,-5.693 1.709,-7.519c0.454,-2.505 1.479,-4.102 3.076,-4.785c1.591,-0.684 3.129,-0.624 4.614,0.171c1.479,0.801 2.788,1.597 3.931,2.393c1.138,0.801 1.821,1.314 2.051,1.538c1.821,2.964 3.3,7.407 4.443,13.33c1.137,5.244 2.392,11.567 3.759,18.969c1.367,7.407 2.734,15.156 4.102,23.241c1.368,8.091 2.563,16.182 3.588,24.267c1.025,8.091 1.881,16.353 2.564,24.78c0.684,8.432 1.309,16.748 1.88,24.95c0.566,8.203 0.855,16.293 0.855,24.266c0,8.203 0.225,15.84 0.684,22.9c0.225,7.064 0.454,14.131 0.684,21.191c0.225,6.834 0.566,12.533 1.025,17.088c0.684,4.561 1.025,8.545 1.025,11.963c0.225,2.51 0.454,4.443 0.684,5.811c0.454,1.826 0.684,3.877 0.684,6.152l0.342,2.734c0,1.826 -0.571,3.363 -1.709,4.613c-1.143,1.25 -2.51,1.934 -4.102,2.051c-1.597,0.113 -3.075,-0.4 -4.442,-1.537c-1.367,-1.139 -2.051,-2.617 -2.051,-4.443l0,-2.734c-0.23,-1.592 -0.46,-3.076 -0.684,-4.443c-0.46,-1.82 -0.801,-4.443 -1.025,-7.861c0,-2.959 -0.23,-6.605 -0.684,-10.938c-0.684,-4.785 -1.143,-10.707 -1.367,-17.771c-0.229,-7.061 -0.459,-14.238 -0.684,-21.533c-0.459,-7.061 -0.684,-14.697 -0.684,-22.9c0,-0.684 0,-1.137 0,-1.367c-0.913,0 -1.826,0.119 -2.734,0.342c-1.827,0.461 -3.989,0.914 -6.494,1.367c-2.51,0.23 -4.785,0.459 -6.836,0.684c-3.193,0.23 -5.928,0.459 -8.203,0.684c-2.734,0.459 -5.356,0.684 -7.861,0.684l-0.684,0c-0.23,1.598 -0.46,3.307 -0.684,5.127c-1.143,9.57 -1.939,18.344 -2.393,26.318c-0.459,7.978 -0.913,15.039 -1.367,21.189c-0.684,5.928 -1.025,10.885 -1.025,14.869c0,3.988 0,7.465 0,10.424l0,5.127c0.224,1.596 -0.288,3.021 -1.538,4.271c-1.255,1.256 -2.734,1.881 -4.443,1.881c-1.708,0 -3.135,-0.566 -4.272,-1.709c-1.144,-1.141 -1.828,-2.508 -2.052,-4.104zm19.482,-95.699c1.821,0 3.642,-0.113 5.468,-0.342c2.505,-0.455 5.127,-0.797 7.861,-1.025c2.275,-0.225 4.555,-0.455 6.835,-0.684c2.275,-0.224 3.984,-0.566 5.127,-1.025c1.821,-0.454 3.642,-0.684 5.468,-0.684l0,-0.342c-0.23,-3.188 -0.342,-6.494 -0.342,-9.912c-0.459,-7.973 -1.025,-16.176 -1.708,-24.608c-0.913,-8.427 -1.827,-16.518 -2.734,-24.267c-1.143,-7.973 -2.393,-15.946 -3.76,-23.925c-1.367,-7.973 -2.734,-15.604 -4.102,-22.9c-0.459,-2.734 -0.913,-5.351 -1.367,-7.861c-0.459,3.193 -0.913,6.724 -1.367,10.595c-0.913,6.152 -1.708,12.422 -2.392,18.798c-0.684,6.836 -1.827,14.473 -3.418,22.899c-1.367,8.203 -2.622,16.636 -3.76,25.292c-0.913,9.116 -2.168,18.574 -3.76,28.368c-0.682,3.879 -1.366,7.751 -2.049,11.623z"/>
   </g>
   <g id="svg_7">
    <path id="svg_8" d="m46.199,160.648c0,12.383 -10.051,22.432 -22.441,22.432c-12.382,0 -22.432,-10.049 -22.432,-22.432c0,-12.398 10.05,-22.44 22.432,-22.44c12.39,0 22.441,10.042 22.441,22.44z"/>
   </g>
   <g id="svg_9">
    <path id="svg_10" d="m413.955,160.648c0,12.383 -10.049,22.432 -22.438,22.432c-12.384,0 -22.433,-10.049 -22.433,-22.432c0,-12.398 10.049,-22.44 22.433,-22.44c12.389,0 22.438,10.042 22.438,22.44z"/>
   </g>
   <g id="svg_11">
    <path id="svg_12" d="m25.153,299.35l-0.322,0l0,-5.266l-8.023,0l0,5.266l-0.322,0l0,-10.381l0.322,0l0,4.824l8.023,0l0,-4.824l0.322,0l0,10.381z"/>
    <path id="svg_13" d="m44.766,294.16c0,1.643 -0.47,2.938 -1.409,3.881c-0.939,0.943 -2.23,1.416 -3.874,1.416c-1.654,0 -2.945,-0.469 -3.874,-1.408c-0.929,-0.939 -1.394,-2.236 -1.394,-3.889c0,-1.633 0.467,-2.898 1.401,-3.797c0.934,-0.898 2.222,-1.348 3.866,-1.348c1.643,0 2.934,0.449 3.874,1.348c0.94,0.899 1.41,2.164 1.41,3.797zm-0.322,0c0,-1.541 -0.439,-2.736 -1.316,-3.582c-0.878,-0.848 -2.093,-1.271 -3.644,-1.271c-1.542,0 -2.751,0.426 -3.628,1.277c-0.878,0.853 -1.317,2.045 -1.317,3.576c0,1.531 0.441,2.748 1.324,3.65c0.883,0.904 2.09,1.355 3.621,1.355c1.541,0 2.753,-0.445 3.636,-1.34c0.882,-0.891 1.324,-2.114 1.324,-3.665z"/>
    <path id="svg_14" d="m64.577,299.35l-0.322,0l0,-10.09l-4.884,10.09l-0.352,0l-4.899,-10.088l0,10.088l-0.322,0l0,-10.381l0.52,0l4.868,10.025l4.873,-10.031l0.518,0.006l0,10.381z"/>
    <path id="svg_15" d="m81.51,299.35l-7.518,0l0,-10.381l7.441,0l0,0.291l-7.119,0l0,4.533l6.308,0l0,0.291l-6.308,0l0,4.975l7.196,0l0,0.291z"/>
    <path id="svg_16" d="m98.995,288.969l-4.624,5.283l0,5.098l-0.321,0l0,-5.098l-4.639,-5.281l0.38,0.016l4.399,4.961l4.42,-4.98l0.385,0.001z"/>
    <path id="svg_17" d="m114.029,295.645l-2.939,0l0,2.68l-0.321,0l0,-2.68l-2.924,0l0,-0.291l2.924,0l0,-2.633l0.321,0l0,2.633l2.939,0l0,0.291z"/>
    <path id="svg_18" d="m131.269,299.35l-7.518,0l0,-10.381l7.441,0l0,0.291l-7.119,0l0,4.533l6.308,0l0,0.291l-6.308,0l0,4.975l7.196,0l0,0.291z"/>
    <path id="svg_19" d="m148.829,299.35l-0.351,0l-1.48,-3.414l-5.848,0l-1.52,3.416l-0.386,-0.002l4.67,-10.381l0.413,0l4.502,10.381zm-1.974,-3.705l-2.728,-6.289l-2.847,6.289l5.575,0z"/>
    <path id="svg_20" d="m165.655,296.824c0,0.918 -0.464,1.613 -1.393,2.082c-0.735,0.367 -1.613,0.551 -2.633,0.551c-1.296,0 -2.327,-0.234 -3.093,-0.703c-0.939,-0.572 -1.409,-1.465 -1.409,-2.68l0,-0.154l0.322,0l0,0.092c0,2.104 1.398,3.154 4.195,3.154c0.97,0 1.776,-0.158 2.419,-0.475c0.847,-0.408 1.271,-1.045 1.271,-1.914c0,-0.602 -0.158,-1.066 -0.475,-1.393c-0.276,-0.275 -0.72,-0.506 -1.332,-0.689c-0.306,-0.092 -1.036,-0.266 -2.189,-0.52c-1.296,-0.287 -2.164,-0.547 -2.602,-0.781c-0.848,-0.449 -1.271,-1.113 -1.271,-1.99c0,-1.695 1.291,-2.541 3.873,-2.541c2.705,0 4.073,1.004 4.103,3.016l-0.321,0c-0.062,-1.051 -0.465,-1.791 -1.209,-2.221c-0.582,-0.336 -1.439,-0.504 -2.572,-0.504c-2.368,0 -3.552,0.75 -3.552,2.25c0,0.756 0.342,1.322 1.026,1.699c0.439,0.234 1.169,0.449 2.19,0.643c1.827,0.338 3.041,0.695 3.644,1.072c0.672,0.418 1.008,1.086 1.008,2.006z"/>
    <path id="svg_21" d="m183.63,288.969l-4.624,5.283l0,5.098l-0.321,0l0,-5.098l-4.639,-5.281l0.38,0.016l4.399,4.961l4.42,-4.98l0.385,0.001z"/>
    <path id="svg_22" d="m202.125,294.512c0.021,0.215 0.031,0.424 0.031,0.629c0,1.459 -0.542,2.576 -1.623,3.352c-0.898,0.645 -1.98,0.965 -3.246,0.965c-1.684,0 -3.016,-0.459 -3.996,-1.377c-0.98,-0.92 -1.47,-2.215 -1.47,-3.889c0,-1.645 0.482,-2.943 1.447,-3.897c0.964,-0.955 2.268,-1.432 3.912,-1.432c1.235,0 2.256,0.254 3.062,0.766c0.908,0.57 1.48,1.434 1.715,2.586l-0.337,0c-0.449,-2.041 -1.924,-3.061 -4.425,-3.061c-1.551,0 -2.781,0.449 -3.689,1.346c-0.909,0.898 -1.363,2.123 -1.363,3.676c0,1.582 0.46,2.809 1.38,3.682c0.92,0.873 2.178,1.309 3.772,1.309c1.237,0 2.28,-0.326 3.128,-0.98c0.941,-0.713 1.411,-1.668 1.411,-2.861l0,-0.521l-4.471,0l0,-0.291l4.762,0l0,-0.002z"/>
    <path id="svg_23" d="m221.63,294.16c0,1.643 -0.47,2.938 -1.409,3.881c-0.939,0.943 -2.23,1.416 -3.874,1.416c-1.654,0 -2.945,-0.469 -3.874,-1.408c-0.929,-0.939 -1.393,-2.236 -1.393,-3.889c0,-1.633 0.467,-2.898 1.401,-3.797c0.934,-0.898 2.222,-1.348 3.866,-1.348c1.643,0 2.934,0.449 3.874,1.348c0.94,0.899 1.409,2.164 1.409,3.797zm-0.321,0c0,-1.541 -0.439,-2.736 -1.316,-3.582c-0.878,-0.848 -2.093,-1.271 -3.644,-1.271c-1.542,0 -2.751,0.426 -3.628,1.277c-0.878,0.853 -1.317,2.045 -1.317,3.576c0,1.531 0.441,2.748 1.324,3.65c0.883,0.904 2.09,1.355 3.621,1.355c1.541,0 2.753,-0.445 3.636,-1.34c0.882,-0.891 1.324,-2.114 1.324,-3.665z"/>
    <path id="svg_24" d="m230.985,299.35l-0.322,0l0,-10.381l0.322,0l0,10.381z"/>
    <path id="svg_25" d="m249.036,299.35l-0.457,-0.014l-7.887,-10.064l0,10.078l-0.322,0l0,-10.381l0.475,0c0.847,1.135 2.159,2.809 3.935,5.023c1.776,2.215 3.087,3.889 3.935,5.022l0,-10.045l0.322,0l0,10.381l-0.001,0z"/>
    <path id="svg_26" d="m268.403,294.512c0.021,0.215 0.031,0.424 0.031,0.629c0,1.459 -0.542,2.576 -1.623,3.352c-0.898,0.645 -1.98,0.965 -3.246,0.965c-1.684,0 -3.016,-0.459 -3.996,-1.377c-0.98,-0.92 -1.47,-2.215 -1.47,-3.889c0,-1.645 0.482,-2.943 1.447,-3.897c0.964,-0.955 2.268,-1.432 3.912,-1.432c1.235,0 2.256,0.254 3.062,0.766c0.908,0.57 1.48,1.434 1.715,2.586l-0.337,0c-0.449,-2.041 -1.924,-3.061 -4.425,-3.061c-1.551,0 -2.781,0.449 -3.689,1.346c-0.909,0.898 -1.363,2.123 -1.363,3.676c0,1.582 0.46,2.809 1.38,3.682c0.92,0.873 2.178,1.309 3.772,1.309c1.237,0 2.28,-0.326 3.129,-0.98c0.94,-0.713 1.411,-1.668 1.411,-2.861l0,-0.521l-4.471,0l0,-0.291l4.761,0l0,-0.002z"/>
    <path id="svg_27" d="m284.203,295.645l-2.939,0l0,2.68l-0.321,0l0,-2.68l-2.924,0l0,-0.291l2.924,0l0,-2.633l0.321,0l0,2.633l2.939,0l0,0.291z"/>
    <path id="svg_28" d="m302.713,299.35l-0.351,0l-1.48,-3.414l-5.848,0l-1.52,3.416l-0.386,-0.002l4.67,-10.381l0.413,0l4.502,10.381zm-1.973,-3.705l-2.728,-6.289l-2.847,6.289l5.575,0z"/>
    <path id="svg_29" d="m322.097,299.35l-0.322,0l0,-10.09l-4.884,10.09l-0.352,0l-4.9,-10.088l0,10.088l-0.322,0l0,-10.381l0.52,0l4.868,10.025l4.872,-10.031l0.518,0.006l0,10.381l0.002,0z"/>
    <path id="svg_30" d="m339.918,295.523c0,1.377 -0.358,2.387 -1.072,3.031c-0.684,0.602 -1.725,0.902 -3.123,0.902c-1.419,0 -2.465,-0.301 -3.139,-0.902c-0.714,-0.645 -1.072,-1.664 -1.072,-3.063l0,-6.523l0.322,0l0,6.508c0,2.459 1.296,3.689 3.889,3.689c2.582,0 3.874,-1.209 3.874,-3.629l0,-6.568l0.321,0l0,6.555z"/>
    <path id="svg_31" d="m357.556,296.824c0,0.918 -0.465,1.613 -1.394,2.082c-0.735,0.367 -1.613,0.551 -2.634,0.551c-1.296,0 -2.327,-0.234 -3.093,-0.703c-0.938,-0.572 -1.408,-1.465 -1.408,-2.68l0,-0.154l0.321,0l0,0.092c0,2.104 1.398,3.154 4.195,3.154c0.97,0 1.776,-0.158 2.419,-0.475c0.848,-0.408 1.271,-1.045 1.271,-1.914c0,-0.602 -0.158,-1.066 -0.475,-1.393c-0.275,-0.275 -0.719,-0.506 -1.332,-0.689c-0.306,-0.092 -1.036,-0.266 -2.189,-0.52c-1.297,-0.287 -2.164,-0.547 -2.603,-0.781c-0.847,-0.449 -1.271,-1.113 -1.271,-1.99c0,-1.695 1.291,-2.541 3.874,-2.541c2.704,0 4.072,1.004 4.103,3.016l-0.321,0c-0.061,-1.051 -0.465,-1.791 -1.21,-2.221c-0.581,-0.336 -1.439,-0.504 -2.571,-0.504c-2.368,0 -3.553,0.75 -3.553,2.25c0,0.756 0.342,1.322 1.026,1.699c0.439,0.234 1.168,0.449 2.19,0.643c1.826,0.338 3.041,0.695 3.643,1.072c0.675,0.418 1.012,1.086 1.012,2.006z"/>
    <path id="svg_32" d="m367.14,299.35l-0.321,0l0,-10.381l0.321,0l0,10.381z"/>
    <path id="svg_33" d="m385.189,299.35l-0.457,-0.014l-7.887,-10.064l0,10.078l-0.321,0l0,-10.381l0.475,0c0.847,1.135 2.158,2.809 3.935,5.023c1.776,2.215 3.087,3.889 3.935,5.022l0,-10.045l0.321,0l0,10.381l-0.001,0z"/>
    <path id="svg_34" d="m404.558,294.512c0.021,0.215 0.03,0.424 0.03,0.629c0,1.459 -0.541,2.576 -1.623,3.352c-0.897,0.645 -1.979,0.965 -3.245,0.965c-1.685,0 -3.017,-0.459 -3.996,-1.377c-0.98,-0.92 -1.47,-2.215 -1.47,-3.889c0,-1.645 0.482,-2.943 1.446,-3.897c0.965,-0.955 2.269,-1.432 3.912,-1.432c1.235,0 2.256,0.254 3.063,0.766c0.908,0.57 1.48,1.434 1.714,2.586l-0.336,0c-0.449,-2.041 -1.925,-3.061 -4.425,-3.061c-1.552,0 -2.782,0.449 -3.69,1.346c-0.908,0.898 -1.362,2.123 -1.362,3.676c0,1.582 0.46,2.809 1.38,3.682c0.92,0.873 2.178,1.309 3.772,1.309c1.237,0 2.279,-0.326 3.128,-0.98c0.94,-0.713 1.411,-1.668 1.411,-2.861l0,-0.521l-4.471,0l0,-0.291l4.762,0l0,-0.002z"/>
   </g>
  </g>
 </g>
</svg>