<?xml version="1.0" encoding="utf-8"?>
<!-- Generator: Adobe Illustrator 17.0.0, SVG Export Plug-In . SVG Version: 6.00 Build 0)  -->
<!DOCTYPE svg PUBLIC "-//W3C//DTD SVG 1.1//EN" "http://www.w3.org/Graphics/SVG/1.1/DTD/svg11.dtd">
<svg version="1.1" id="圖層_1" xmlns="http://www.w3.org/2000/svg" xmlns:xlink="http://www.w3.org/1999/xlink" x="0px" y="0px"
	 width="595.28px" height="595.28px" viewBox="0 0 595.28 595.28" enable-background="new 0 0 595.28 595.28" xml:space="preserve">
<rect fill="#FFFFFF" width="595.28" height="595.281"/>
<g>
	<g>
		<path d="M230.994,188.904v6.152c-0.23,3.877-0.23,7.407,0,10.595c0.224,3.877,0.342,8.091,0.342,12.646
			c0,4.561,0.224,9.116,0.684,13.672c0.684,5.244,1.025,10.483,1.025,15.722c0,5.245-0.229,10.713-0.684,16.406
			c-0.459,5.469-0.571,11.167-0.342,17.089c0,5.928,0.112,12.08,0.342,18.457c0,6.382,0.342,12.646,1.025,18.797
			c0.454,6.383,0.795,12.877,1.025,19.482c0.454,6.611,0.908,12.764,1.367,18.457c0.224,5.697,0.342,10.824,0.342,15.379
			c0,4.102,0.112,7.861,0.342,11.279c0.224,3.418,0.454,6.27,0.684,8.545c0.224,2.281,0.342,4.332,0.342,6.152
			c0,1.598,0.112,3.535,0.342,5.81c0.224,2.51,0.342,4.561,0.342,6.152v2.393c0,1.596-0.63,3.021-1.88,4.271
			c-1.255,1.25-2.734,1.881-4.443,1.881s-3.135-0.631-4.272-1.881c-1.143-1.25-1.709-2.676-1.709-4.271v-2.393
			c0-1.367-0.117-3.189-0.342-5.469c-0.229-2.504-0.342-4.555-0.342-6.152c0-1.592-0.117-3.418-0.342-5.469
			c-0.23-2.275-0.459-5.238-0.683-8.887c-0.23-3.641-0.342-7.631-0.342-11.963c0-4.1-0.118-8.998-0.342-14.695
			c-0.46-5.693-0.914-11.846-1.367-18.457c-0.23-6.377-0.572-12.758-1.025-19.141c-0.684-6.375-1.025-12.869-1.025-19.48
			c-0.23-6.376-0.342-12.646-0.342-18.798c-0.23-4.102-0.23-8.085,0-11.962c-1.827,0-3.194,0.118-4.102,0.342
			c-2.051,0.229-4.561,0.342-7.519,0.342c-2.734,0-5.015,0-6.836,0c-2.051,0-4.331-0.112-6.835-0.342l-3.076-0.342
			c0,5.015-0.118,9.912-0.342,14.697c-0.23,6.611-0.342,13.671-0.342,21.191c0,7.748,0,15.156,0,22.215
			c-0.23,7.066-0.571,13.789-1.025,20.166c-0.684,5.928-1.025,11.508-1.025,16.748c0,5.697,0,10.713,0,15.037v12.988
			c0,4.785-0.229,8.32-0.684,10.596c-0.23,2.051-0.342,3.76-0.342,5.127c0,1.367,0,2.734,0,4.102v2.393
			c0,1.592-0.63,3.018-1.88,4.272c-1.255,1.25-2.681,1.881-4.272,1.881c-1.597,0-3.022-0.631-4.272-1.881
			c-1.255-1.254-1.88-2.68-1.88-4.272v-2.393c0-1.592,0-3.076,0-4.443c0-1.592,0.224-3.643,0.684-6.152
			c0.224-2.051,0.342-5.127,0.342-9.229v-12.988c0-4.555,0-9.568,0-15.037c0-5.693,0.342-11.734,1.025-18.115
			c0.454-5.922,0.795-12.305,1.025-19.141c0-6.836,0-14.125,0-21.873c0-7.744,0.112-14.921,0.342-21.533
			c0.224-6.377,0.342-12.988,0.342-19.824c-0.23-6.836-0.23-13.441,0-19.823c0.224-6.152,0.454-11.845,0.684-17.089
			c0.224-4.785,0.342-9.228,0.342-13.33c0-3.872,0.224-7.29,0.683-10.254c0.225-3.188,0.566-5.692,1.025-7.519
			c0.454-2.275,1.138-4.443,2.051-6.494l1.367-2.734c0.684-1.592,1.821-2.676,3.418-3.247c1.591-0.566,3.129-0.513,4.614,0.171
			c1.479,0.684,2.563,1.826,3.247,3.418c0.684,1.597,0.684,3.193,0,4.785l-1.367,2.734c-0.683,1.143-1.143,2.393-1.367,3.76
			c-0.23,1.597-0.572,3.76-1.025,6.494c-0.23,2.734-0.342,5.81-0.342,9.229c0,4.101-0.118,8.662-0.342,13.671
			c-0.23,5.015-0.46,10.595-0.684,16.748c0,4.101,0,8.32,0,12.646c0.224,0,0.454,0,0.684,0l3.417,0.342
			c2.051,0.229,3.872,0.342,5.469,0.342c1.821,0,4.213,0,7.178,0c2.504,0,4.443-0.112,5.81-0.342
			c1.821-0.225,3.984-0.342,6.494-0.342c0.224-3.188,0.342-6.264,0.342-9.229c0-4.785-0.23-9.57-0.684-14.355
			c-0.684-5.009-1.025-9.912-1.025-14.697c0-4.555-0.118-8.545-0.342-11.962c-0.23-3.872-0.23-7.973,0-12.304v-6.152
			c0.224-1.592,0.966-2.959,2.222-4.102c1.249-1.138,2.675-1.709,4.272-1.709c1.592,0,3.018,0.63,4.273,1.88
			C230.706,185.545,231.218,187.083,230.994,188.904z"/>
		<path d="M282.942,179.676c0.684-3.188,2.505-4.897,5.469-5.127h2.734c1.591-0.224,3.3-0.454,5.126-0.684
			c2.275-0.224,4.443-0.342,6.494-0.342c1.591,0,3.53,0,5.81,0h18.115c1.591,0,3.018,0.63,4.272,1.88
			c1.25,1.255,1.88,2.734,1.88,4.443s-0.63,3.135-1.88,4.272c-1.255,1.143-2.681,1.709-4.272,1.709h-18.115c-2.28,0-4.331,0-6.152,0
			c-1.367,0-2.964,0.117-4.785,0.342c-1.367,0-2.622,0.117-3.76,0.342v1.025c-0.23,2.28-0.342,5.468-0.342,9.57
			c0,4.331,0,9.688,0,16.064c-0.229,6.382-0.342,13.217-0.342,20.507c-0.229,6.836-0.459,14.585-0.684,23.242
			c-0.229,8.662-0.913,17.089-2.05,25.292c-0.914,7.749-1.827,15.498-2.734,23.242c2.051-0.454,4.101-0.796,6.152-1.025
			c2.505-0.225,4.897-0.225,7.178,0c2.051,0.229,3.76,0.342,5.127,0.342c1.367,0,3.076-0.225,5.127-0.684l3.76-1.025
			c1.591-0.454,3.129-0.225,4.614,0.684c1.479,0.913,2.392,2.168,2.734,3.759c0.342,1.597,0.112,3.135-0.684,4.614
			c-0.801,1.485-2.109,2.451-3.93,2.906l-3.418,0.684c-2.964,0.912-5.586,1.367-7.861,1.367c-2.05,0-4.219-0.113-6.494-0.342
			c-1.597,0-3.306,0-5.127,0c-2.051,0.229-4.101,0.57-6.152,1.025l-2.392,0.34c-0.46,3.648-0.801,7.295-1.025,10.938
			c-0.46,7.295-0.801,14.131-1.025,20.508c0,6.152,0.112,11.738,0.342,16.748c0.224,5.244,0.566,10.141,1.025,14.695
			c0.454,4.561,0.908,8.434,1.367,11.621c0.684,3.648,1.025,6.953,1.025,9.912c-0.23,1.143-0.342,2.281-0.342,3.418
			c1.591,0.228,3.188,0.228,4.785,0c2.734-0.225,5.469-0.566,8.203-1.025c2.958-0.225,5.351-0.453,7.177-0.684
			c1.592,0,3.018-0.053,4.272-0.172c1.25-0.111,2.676-0.281,4.272-0.512l2.734-0.684c1.591-0.225,3.076,0.117,4.443,1.025
			c1.367,0.914,2.222,2.221,2.563,3.93c0.342,1.709,0,3.248-1.025,4.615c-1.025,1.367-2.339,2.279-3.931,2.734l-2.392,0.342
			c-1.827,0.225-3.536,0.453-5.127,0.684c-1.597,0.225-3.306,0.342-5.127,0.342c-1.597,0.225-3.647,0.453-6.152,0.684
			c-2.734,0.453-5.469,0.795-8.203,1.025c-3.418,0.453-6.835,0.225-10.253-0.684c-5.698-1.367-8.544-4.443-8.544-9.228
			c0-1.367,0.112-3.418,0.342-6.152c0-2.275-0.23-4.896-0.684-7.861c-0.684-3.188-1.255-7.178-1.709-11.963
			c-0.46-4.785-0.801-9.912-1.025-15.379c-0.229-5.24-0.342-11.162-0.342-17.773c0.224-6.377,0.625-13.383,1.196-21.02
			c0.566-7.633,1.308-15.434,2.222-23.412c0.908-8.203,1.933-16.289,3.076-24.267c1.138-7.744,1.709-15.722,1.709-23.925
			c0.225-8.203,0.454-15.946,0.684-23.242c0-7.29,0.112-14.013,0.342-20.165c0-6.376,0-11.733,0-16.064
			c0-4.555,0.112-8.203,0.342-10.937l0.684-3.76C282.258,181.502,282.482,180.589,282.942,179.676z"/>
		<path d="M366.677,408.33v-5.127c0-3.188,0.053-6.836,0.171-10.938c0.112-4.102,0.395-9.281,0.854-15.551
			c0.454-6.264,0.908-13.383,1.367-21.361c0.454-7.975,1.367-16.973,2.734-27.002c0.225-1.82,0.454-3.76,0.684-5.811
			c-0.913-1.137-1.367-2.393-1.367-3.76c0-2.273,0.908-3.983,2.734-5.125c0.684-5.01,1.367-9.912,2.051-14.697
			c1.591-9.794,2.958-19.023,4.102-27.685c0.908-8.887,2.163-17.543,3.76-25.976c1.367-8.203,2.393-15.493,3.076-21.874
			c0.684-6.606,1.479-13.041,2.393-19.311c0.908-6.264,1.709-11.674,2.392-16.234c0.684-4.556,1.138-8.315,1.367-11.279
			c0.454-3.188,1.025-5.693,1.709-7.519c0.454-2.505,1.479-4.102,3.076-4.785c1.591-0.684,3.129-0.624,4.614,0.171
			c1.479,0.801,2.788,1.597,3.931,2.393c1.138,0.801,1.821,1.314,2.051,1.538c1.821,2.964,3.3,7.407,4.443,13.33
			c1.137,5.244,2.392,11.567,3.759,18.969c1.367,7.407,2.734,15.156,4.102,23.241c1.368,8.091,2.563,16.182,3.588,24.267
			c1.025,8.091,1.881,16.353,2.564,24.78c0.684,8.432,1.309,16.748,1.88,24.95c0.566,8.203,0.855,16.293,0.855,24.266
			c0,8.203,0.225,15.84,0.684,22.9c0.225,7.064,0.454,14.131,0.684,21.191c0.225,6.834,0.566,12.533,1.025,17.088
			c0.684,4.561,1.025,8.545,1.025,11.963c0.225,2.51,0.454,4.443,0.684,5.811c0.454,1.826,0.684,3.877,0.684,6.152l0.342,2.734
			c0,1.826-0.571,3.363-1.709,4.613c-1.143,1.25-2.51,1.934-4.102,2.051c-1.597,0.113-3.075-0.4-4.442-1.537
			c-1.367-1.139-2.051-2.617-2.051-4.443v-2.734c-0.23-1.592-0.46-3.076-0.684-4.443c-0.46-1.82-0.801-4.443-1.025-7.861
			c0-2.959-0.23-6.605-0.684-10.938c-0.684-4.785-1.143-10.707-1.367-17.771c-0.229-7.061-0.459-14.238-0.684-21.533
			c-0.459-7.061-0.684-14.697-0.684-22.9c0-0.684,0-1.137,0-1.367c-0.913,0-1.826,0.119-2.734,0.342
			c-1.827,0.461-3.989,0.914-6.494,1.367c-2.51,0.23-4.785,0.459-6.836,0.684c-3.193,0.23-5.928,0.459-8.203,0.684
			c-2.734,0.459-5.356,0.684-7.861,0.684h-0.684c-0.23,1.598-0.46,3.307-0.684,5.127c-1.143,9.57-1.939,18.344-2.393,26.318
			c-0.459,7.978-0.913,15.039-1.367,21.189c-0.684,5.928-1.025,10.885-1.025,14.869c0,3.988,0,7.465,0,10.424v5.127
			c0.224,1.596-0.288,3.021-1.538,4.271c-1.255,1.256-2.734,1.881-4.443,1.881c-1.708,0-3.135-0.566-4.272-1.709
			C367.585,411.293,366.901,409.926,366.677,408.33z M386.159,312.631c1.821,0,3.642-0.113,5.468-0.342
			c2.505-0.455,5.127-0.797,7.861-1.025c2.275-0.225,4.555-0.455,6.835-0.684c2.275-0.224,3.984-0.566,5.127-1.025
			c1.821-0.454,3.642-0.684,5.468-0.684v-0.342c-0.23-3.188-0.342-6.494-0.342-9.912c-0.459-7.973-1.025-16.176-1.708-24.608
			c-0.913-8.427-1.827-16.518-2.734-24.267c-1.143-7.973-2.393-15.946-3.76-23.925c-1.367-7.973-2.734-15.604-4.102-22.9
			c-0.459-2.734-0.913-5.351-1.367-7.861c-0.459,3.193-0.913,6.724-1.367,10.595c-0.913,6.152-1.708,12.422-2.392,18.798
			c-0.684,6.836-1.827,14.473-3.418,22.899c-1.367,8.203-2.622,16.636-3.76,25.292c-0.913,9.116-2.168,18.574-3.76,28.368
			C387.526,304.887,386.842,308.759,386.159,312.631z"/>
	</g>
	<g>
		<path d="M136.199,316.648c0,12.383-10.051,22.432-22.441,22.432c-12.382,0-22.432-10.049-22.432-22.432
			c0-12.398,10.05-22.44,22.432-22.44C126.148,294.208,136.199,304.25,136.199,316.648z"/>
	</g>
	<g>
		<path d="M503.955,316.648c0,12.383-10.049,22.432-22.438,22.432c-12.384,0-22.433-10.049-22.433-22.432
			c0-12.398,10.049-22.44,22.433-22.44C493.906,294.208,503.955,304.25,503.955,316.648z"/>
	</g>
</g>
</svg>
